<?xml version="1.0" standalone="no"?><!DOCTYPE svg PUBLIC "-//W3C//DTD SVG 1.1//EN" "http://www.w3.org/Graphics/SVG/1.1/DTD/svg11.dtd"><svg t="1596263057433" class="icon" viewBox="0 0 1024 1024" version="1.1" xmlns="http://www.w3.org/2000/svg" p-id="3862" xmlns:xlink="http://www.w3.org/1999/xlink" width="250" height="250"><defs><style type="text/css"></style></defs><path d="M277.00807741 91.02962127l169.77746195 884.51766329-62.08056343 11.91365308-169.76956136-884.51766332z" fill="#ffffff" p-id="3863"></path><path d="M315.84595548 628.55027815L212.40731818 89.65496808l31.65650569-5.5302108c0.96383722-0.16590563 96.75498181-16.92244363 155.03550076-29.74463104 13.97563211-3.07321701 34.98253073-4.50317157 66.09391431-4.50317158 36.2939819 0 82.25003035 1.97507518 126.69712245 3.87904773 43.66496176 1.87237154 88.83098073 3.8079451 123.59230442 3.80794509 11.46333693 0 21.44931707-0.21330787 29.67352841-0.63202444 48.23133535-2.4648944 85.61555846-27.96706397 85.98687283-28.2277741l39.87281789-27.57994984 9.26705327 47.53610886 85.03883538 443.00146037-22.12084169 10.4836985c-11.88205206 5.62501379-117.37476778 55.14409846-162.58818749 60.28719513-9.28285305 1.05864021-21.71002571 1.58006043-37.97674597 1.58006044-22.90297202 0-50.26171339-0.97963697-79.2321147-2.01457679-28.88349893-1.03493983-58.76243609-2.10148066-83.46667705-2.10148066-20.95949785 0-35.88316591 0.77422972-44.3522876 2.29898728-57.11917364 10.27039063-183.96640194 54.00645501-185.23835002 54.44887347l-34.50061359 11.90575245z m-29.27061454-487.81196622l77.65205574 404.55069792c43.46745364-14.31534545 117.40636878-37.62913199 160.16279619-45.31612483 12.4982753-2.2436859 30.13964725-3.2944255 55.5391132-3.2944255 25.84188293 0 56.28964253 1.09024122 85.73406333 2.14098081 28.39368119 1.01123796 55.19940132 1.97507518 76.97262904 1.97507518 13.6596206 0 24.01691362-0.39501475 30.81117335-1.16924446 22.07343943-2.51229515 78.56059009-25.5100702 120.51908593-44.39178925l-67.78457901-353.14344044c-20.50918026 8.40591969-47.39390363 16.39312425-77.8021616 17.9415837a648.60678539 648.60678539 0 0 1-32.8968513 0.71892685c-36.11227502 0-81.96561984-1.96717456-126.29420709-3.8711471-43.78346662-1.88027216-89.04428859-3.81584573-123.98731915-3.81584572-32.01991796 0-46.23255979 1.64326244-52.51329843 3.03371538-38.89318093 8.56392619-92.45721894 18.5420057-126.1125002 24.64103746zM707.09254589 981.23550185a39.50150354 39.50150354 0 0 1-39.50150355 39.50150353h-379.21443247a39.50150354 39.50150354 0 0 1 0-79.00300707h379.21443247a39.50150354 39.50150354 0 0 1 39.50150355 39.50150354zM801.89615437 846.02185548c0 22.85556978-14.56025434 40.41003788-33.39457114 40.41003787h-200.4148276c-18.83431681 0-34.80082384-17.56236873-34.80082383-40.41003787v-1.76966793c0-22.84766915 15.96650705-44.72360197 34.80082383-44.72360197h200.4148276c18.83431681 0 33.39457114 21.88383342 33.39457114 44.72360197v1.76966793zM343.67871481 853.49553896c0 20.16156774-16.22721716 32.93635292-37.13141362 32.93635439H84.13803741c-20.904195 0-40.67074799-12.77478663-40.67074802-32.93635439v-1.56425919c0-20.16156774 19.76655301-36.60209278 40.67074802-36.60209278H306.54730119c20.904195 0 37.13141362 16.44052502 37.13141362 36.60209278v1.56425919z" fill="#ffffff" p-id="3864"></path></svg>