<?xml version="1.0" standalone="no"?><!DOCTYPE svg PUBLIC "-//W3C//DTD SVG 1.1//EN" "http://www.w3.org/Graphics/SVG/1.1/DTD/svg11.dtd"><svg t="1596262424565" class="icon" viewBox="0 0 1024 1024" version="1.1" xmlns="http://www.w3.org/2000/svg" p-id="2829" width="250" height="250" xmlns:xlink="http://www.w3.org/1999/xlink"><defs><style type="text/css"></style></defs><path d="M996.67512889 492.58192592L539.1853037 35.09210075a39.61287111 39.61287111 0 0 0-55.14733037 0L27.32487111 492.58192592a38.83614815 38.83614815 0 1 0 55.14733037 55.14733038L512 117.42473482l429.52779852 429.52779851a38.83614815 38.83614815 0 0 0 55.14733037-55.14733036z" fill="#ffffff" p-id="2830"></path><path d="M803.27111111 609.3459911a38.83614815 38.83614815 0 0 0-38.83614814 38.83614814v253.98840889H641.71273482V774.01125924a38.83614815 38.83614815 0 0 0-38.83614815-38.83614814H421.12341333a38.83614815 38.83614815 0 0 0-38.83614815 38.83614814v128.15928889H259.56503703V648.18213924a38.83614815 38.83614815 0 0 0-77.67229628 0v292.82455704a38.83614815 38.83614815 0 0 0 38.83614814 38.83614815h200.39452444a38.83614815 38.83614815 0 0 0 38.83614815-38.83614815V812.8474074h104.08087704v128.15928888a38.83614815 38.83614815 0 0 0 38.83614815 38.83614815h200.39452444a38.83614815 38.83614815 0 0 0 38.83614814-38.83614815V648.18213924a38.83614815 38.83614815 0 0 0-38.83614814-38.83614814z" fill="#ffffff" p-id="2831"></path></svg>