<?xml version="1.0" standalone="no"?><!DOCTYPE svg PUBLIC "-//W3C//DTD SVG 1.1//EN" "http://www.w3.org/Graphics/SVG/1.1/DTD/svg11.dtd"><svg t="1601451280346" class="icon" viewBox="0 0 1024 1024" version="1.1" xmlns="http://www.w3.org/2000/svg" p-id="3359" xmlns:xlink="http://www.w3.org/1999/xlink" width="250" height="250"><defs><style type="text/css"></style></defs><path d="M611.9466666666667 943.7866666666666L318.08 943.7866666666666c-44.373333333333335 0-83.30666666666666-37.76-83.30666666666666-80.85333333333332 0-98.56 102.4-244.05333333333334 206.72-293.76 12.693333333333333-6.08 28.053333333333335-0.64 34.13333333333333 12.16 6.08 12.8 0.64 28.053333333333335-12.16 34.13333333333333-93.97333333333333 44.69333333333332-177.49333333333334 175.57333333333332-177.49333333333334 247.46666666666667 0 14.933333333333334 15.89333333333333 29.653333333333332 32.10666666666667 29.653333333333332l293.76 0c14.186666666666667 0 25.6 11.413333333333332 25.6 25.6C637.5466666666667 932.2666666666667 626.0266666666666 943.7866666666666 611.9466666666667 943.7866666666666zM905.7066666666666 943.7866666666666L611.9466666666667 943.7866666666666c-14.186666666666667 0-25.6-11.413333333333332-25.6-25.6 0-14.186666666666667 11.413333333333332-25.6 25.6-25.6l293.76 0c16.21333333333333 0 32.10666666666667-14.72 32.10666666666667-29.653333333333332 0-71.89333333333335-83.62666666666667-202.77333333333328-177.49333333333334-247.46666666666667-12.8-6.08-18.240000000000002-21.333333333333332-12.16-34.13333333333333 6.08-12.8 21.333333333333332-18.240000000000002 34.13333333333333-12.16 104.32 49.6 206.72 195.09333333333333 206.72 293.76C989.0133333333333 906.0266666666666 950.08 943.7866666666666 905.7066666666666 943.7866666666666zM615.7866666666665 565.76c-138.77333333333328 0-251.62666666666667-112.85333333333332-251.62666666666667-251.62666666666667 0-138.77333333333328 112.85333333333332-251.62666666666667 251.62666666666667-251.62666666666667 138.77333333333328 0 251.62666666666667 112.85333333333332 251.62666666666667 251.62666666666667C867.4133333333333 452.8 754.4533333333333 565.76 615.7866666666665 565.76zM615.7866666666665 113.60000000000002c-110.50666666666666 0-200.42666666666668 89.92-200.42666666666668 200.42666666666668 0 110.50666666666666 89.92 200.42666666666668 200.42666666666668 200.42666666666668 110.50666666666666 0 200.42666666666668-89.92 200.42666666666668-200.42666666666668C816.2133333333334 203.52000000000004 726.2933333333333 113.60000000000002 615.7866666666665 113.60000000000002zM471.4666666666667 326.82666666666665c-7.039999999999999 0-12.8-5.760000000000001-12.8-12.8 0-86.61333333333333 70.4-157.01333333333332 157.01333333333332-157.01333333333332 7.039999999999999 0 12.8 5.760000000000001 12.8 12.8s-5.760000000000001 12.8-12.8 12.8c-72.53333333333333 0-131.41333333333333 58.986666666666665-131.41333333333333 131.41333333333333C484.2666666666667 321.17333333333335 478.61333333333334 326.82666666666665 471.4666666666667 326.82666666666665zM498.0266666666667 365.76c0 7.1466666666666665-5.760000000000001 12.906666666666666-12.906666666666666 12.906666666666666-7.1466666666666665 0-12.906666666666666-5.760000000000001-12.906666666666666-12.906666666666666 0-7.1466666666666665 5.760000000000001-12.906666666666666 12.906666666666666-12.906666666666666C492.2666666666667 352.85333333333335 498.0266666666667 358.72 498.0266666666667 365.76z" p-id="3360" fill="#ffffff"></path><path d="M222.08 847.2533333333333L110.72000000000004 847.2533333333333c-40.31999999999999 0-75.73333333333333-34.34666666666667-75.73333333333333-73.49333333333334 0-89.6 93.11999999999999-221.86666666666667 187.94666666666666-266.9866666666667 11.626666666666667-5.546666666666667 25.493333333333332-0.64 31.040000000000003 10.986666666666668 5.546666666666667 11.626666666666667 0.5333333333333333 25.493333333333332-10.986666666666668 31.040000000000003C157.54666666666665 589.44 81.59999999999998 708.48 81.59999999999998 773.76c0 13.546666666666665 14.4 26.88 29.12 26.88l111.36 0c12.8 0 23.253333333333334 10.453333333333333 23.253333333333334 23.253333333333334C245.33333333333334 836.8 234.9866666666667 847.2533333333333 222.08 847.2533333333333zM389.3333333333333 517.0133333333334c-112.21333333333334 0-203.52-91.30666666666666-203.52-203.52 0-112.21333333333334 91.30666666666666-203.52 203.52-203.52 0 0 20.69333333333333-0.10666666666666667 20.69333333333333 20.8S389.3333333333333 151.4666666666667 389.3333333333333 151.4666666666667c-89.38666666666666 0-162.13333333333333 72.74666666666667-162.13333333333333 162.02666666666667 0 89.38666666666666 72.74666666666667 162.13333333333333 162.13333333333333 162.13333333333333 0 0 20.69333333333333 0.21333333333333335 20.69333333333333 20.159999999999997C410.1333333333333 515.7333333333333 389.3333333333333 517.0133333333334 389.3333333333333 517.0133333333334z" p-id="3361" fill="#ffffff"></path></svg>