<?xml version="1.0" standalone="no"?><!DOCTYPE svg PUBLIC "-//W3C//DTD SVG 1.1//EN" "http://www.w3.org/Graphics/SVG/1.1/DTD/svg11.dtd"><svg t="1592374078444" class="icon" viewBox="0 0 1024 1024" version="1.1" xmlns="http://www.w3.org/2000/svg" p-id="1126" xmlns:xlink="http://www.w3.org/1999/xlink" width="200" height="200"><defs><style type="text/css"></style></defs><path d="M889.92 749.728c-1.184-1.632-119.232-166.144-119.232-287.392 0-168.448-76.16-254.784-162.688-287.008V160c0-52.928-43.072-96-96-96s-96 43.072-96 96v16.576a31.68 31.68 0 0 0-11.808 35.232c5.376 16.832 23.424 26.048 40.224 20.736A187.168 187.168 0 0 1 501.312 224h21.376c115.232 0 184 89.088 184 238.304 0 108.032 72.896 235.392 110.176 293.504C759.488 781.984 633.824 832 512 832c-121.504 0-247.424-50.368-304.832-76.64 37.312-57.984 110.144-185.024 110.144-293.056 0-62.432 11.616-114.208 34.528-153.92a32 32 0 0 0-55.424-32c-28.608 49.536-43.104 112.096-43.104 185.92 0 121.216-118.016 285.248-119.2 286.88a31.936 31.936 0 0 0 10.688 46.976c5.664 3.072 107.392 57.28 233.536 84.512C399.744 947.072 452.16 992 512 992s112.256-44.928 133.632-111.296c126.112-27.104 227.84-80.992 233.504-84.032a31.936 31.936 0 0 0 10.784-46.944zM501.312 160c-7.264 0-14.208 0.992-21.312 1.568V160c0-17.632 14.368-32 32-32s32 14.368 32 32v0.928A252.16 252.16 0 0 0 522.688 160h-21.376zM512 928c-22.336 0-43.136-13.408-57.984-35.296 19.2 2.016 38.592 3.296 57.984 3.296s38.784-1.28 57.984-3.296C555.136 914.624 534.304 928 512 928z" p-id="1127" fill="#ffffff"></path></svg>