<?xml version="1.0" standalone="no"?><!DOCTYPE svg PUBLIC "-//W3C//DTD SVG 1.1//EN" "http://www.w3.org/Graphics/SVG/1.1/DTD/svg11.dtd"><svg t="1596262863839" class="icon" viewBox="0 0 1024 1024" version="1.1" xmlns="http://www.w3.org/2000/svg" p-id="3194" xmlns:xlink="http://www.w3.org/1999/xlink" width="250" height="250"><defs><style type="text/css"></style></defs><path d="M784.49777778 112.07111111v691.76888889c0 20.13866667-16.27022222 36.40888889-36.40888889 36.40888889h-581.40444444c-20.13866667 0-36.40888889-16.27022222-36.4088889-36.40888889v-691.76888889c0-20.13866667 16.27022222-36.40888889 36.4088889-36.40888889h581.40444444c20.13866667 0 36.40888889 16.27022222 36.40888889 36.40888889z m0-109.22666666h-654.22222223c-40.16355555 0-72.81777778 32.65422222-72.81777777 72.81777777v764.58666667c0 40.16355555 32.65422222 72.81777778 72.81777777 72.81777778h654.22222223c40.16355555 0 72.81777778-32.65422222 72.81777777-72.81777778v-764.58666667c0-40.16355555-32.65422222-72.81777778-72.81777777-72.81777777z" fill="#ffffff" p-id="3195"></path><path d="M657.06666667 257.70666667h-400.49777778c-20.13866667 0-36.40888889-16.27022222-36.40888889-36.40888889s16.27022222-36.40888889 36.40888889-36.40888889h400.49777778c20.13866667 0 36.40888889 16.27022222 36.40888888 36.40888889s-16.27022222 36.40888889-36.40888888 36.40888889zM657.06666667 476.16h-400.49777778c-20.13866667 0-36.40888889-16.27022222-36.40888889-36.40888889s16.27022222-36.40888889 36.40888889-36.40888889h400.49777778c20.13866667 0 36.40888889 16.27022222 36.40888888 36.40888889s-16.27022222 36.40888889-36.40888888 36.40888889zM438.61333333 694.61333333h-182.04444444c-20.13866667 0-36.40888889-16.27022222-36.40888889-36.40888888s16.27022222-36.40888889 36.40888889-36.4088889h182.04444444c20.13866667 0 36.40888889 16.27022222 36.40888889 36.4088889s-16.27022222 36.40888889-36.40888889 36.40888888z" fill="#ffffff" p-id="3196"></path><path d="M893.72444445 110.93333333h-0.5688889v102.85511112c0.34133333 2.048 0.56888889 4.20977778 0.5688889 6.37155555v691.76888889c0 20.13866667-16.27022222 36.40888889-36.4088889 36.40888889h-727.04c0 40.16355555 32.65422222 72.81777778 72.81777778 72.81777777h690.63111112c40.16355555 0 72.81777778-32.65422222 72.81777777-72.81777777v-764.58666667c0-40.16355555-32.65422222-72.81777778-72.81777777-72.81777778z" fill="#ffffff" p-id="3197"></path></svg>