<?xml version="1.0" standalone="no"?><!DOCTYPE svg PUBLIC "-//W3C//DTD SVG 1.1//EN" "http://www.w3.org/Graphics/SVG/1.1/DTD/svg11.dtd"><svg t="1596263049610" class="icon" viewBox="0 0 1024 1024" version="1.1" xmlns="http://www.w3.org/2000/svg" p-id="3695" xmlns:xlink="http://www.w3.org/1999/xlink" width="250" height="250"><defs><style type="text/css"></style></defs><path d="M893.49688889 27.98933333H250.99377778c-53.13422222 0-96.36977778 43.23555555-96.36977778 96.36977778v32.08533334h-32.08533333c-53.13422222 0-96.36977778 43.23555555-96.36977778 96.36977777v642.50311111c0 53.13422222 43.23555555 96.36977778 96.36977778 96.36977778h642.50311111c53.13422222 0 96.36977778-43.23555555 96.36977777-96.36977778v-32.08533333h32.08533334c53.13422222 0 96.36977778-43.23555555 96.36977778-96.36977778V124.35911111c0-53.13422222-43.23555555-96.36977778-96.36977778-96.36977778zM122.53866667 220.72888889h642.50311111c17.74933333 0 32.08533333 14.44977778 32.08533333 32.08533333v160.65422223H90.33955555V252.81422222c0-17.74933333 14.44977778-32.08533333 32.19911112-32.08533333z m642.50311111 706.78755556H122.53866667c-17.74933333 0-32.08533333-14.44977778-32.08533334-32.08533334V477.75288889h706.78755556V895.43111111c-0.11377778 17.63555555-14.44977778 32.08533333-32.19911111 32.08533334zM925.696 766.86222222c0 17.74933333-14.44977778 32.08533333-32.08533333 32.08533333h-32.08533334v-546.13333333c0-53.13422222-43.23555555-96.36977778-96.36977778-96.36977777h-546.13333333v-32.08533334c0-17.74933333 14.44977778-32.08533333 32.08533333-32.08533333h642.50311112c17.74933333 0 32.08533333 14.44977778 32.08533333 32.08533333V766.86222222z" fill="#ffffff" p-id="3696"></path><path d="M186.70933333 349.184h321.30844445c17.74933333 0 32.08533333-14.336 32.08533333-32.08533333s-14.336-32.08533333-32.08533333-32.08533334H186.70933333c-17.74933333 0-32.08533333 14.336-32.08533333 32.08533334s14.336 32.08533333 32.08533333 32.08533333zM668.672 349.184c8.30577778 0 16.72533333-3.18577778 22.41422222-9.67111111 6.48533333-5.80266667 9.67111111-14.10844445 9.67111111-22.41422222 0-8.41955555-3.18577778-16.72533333-9.67111111-22.528-11.49155555-12.17422222-32.768-12.17422222-44.94222222 0-6.48533333 5.80266667-9.67111111 14.10844445-9.67111111 22.528 0 8.30577778 3.18577778 16.72533333 9.67111111 22.41422222 5.80266667 6.48533333 14.10844445 9.67111111 22.528 9.67111111z" fill="#ffffff" p-id="3697"></path></svg>