<?xml version="1.0" standalone="no"?><!DOCTYPE svg PUBLIC "-//W3C//DTD SVG 1.1//EN" "http://www.w3.org/Graphics/SVG/1.1/DTD/svg11.dtd"><svg t="1596262882743" class="icon" viewBox="0 0 1024 1024" version="1.1" xmlns="http://www.w3.org/2000/svg" p-id="3362" xmlns:xlink="http://www.w3.org/1999/xlink" width="250" height="250"><defs><style type="text/css"></style></defs><path d="M853.14717227 34.0695136H170.6023648C95.19776 34.0695136 34.0695136 95.19776 34.0695136 170.6023648v682.54480747C34.0695136 928.55177707 95.19776 989.68002347 170.6023648 989.68002347h682.54480747c75.4046048 0 136.5328512-61.1282464 136.5328512-136.5328512V170.6023648C989.68002347 95.19776 928.55177707 34.0695136 853.14717227 34.0695136zM921.4771776 853.33212907A68.09110187 68.09110187 0 0 1 853.2396512 921.4771776H170.7603488c-18.2529312 0-35.48860053-7.01294827-48.39704747-19.92139733S102.27236053 871.58506027 102.27236053 853.33212907V170.66787093A68.51881493 68.51881493 0 0 1 170.7603488 102.27236053h682.4793024A68.30688533 68.30688533 0 0 1 921.4771776 170.66787093v682.66425814z" fill="#ffffff" p-id="3363"></path><path d="M810.66489067 341.17498773h-273.06570347a34.10142293 34.10142293 0 0 0 0 68.20284694h273.06570347a34.10142293 34.10142293 0 0 0 0-68.20284694zM810.66489067 614.3717024h-273.06570347a34.10142293 34.10142293 0 0 0 0 68.20284693h273.06570347a34.10142293 34.10142293 0 0 0 0-68.20284693zM332.8018368 529.0641984c-65.97951147 0-119.45131413 53.487216-119.45131413 119.45131307s53.487216 119.45131413 119.45131413 119.45131413 119.45131413-53.487216 119.45131307-119.45131413-53.47180267-119.45131413-119.45131307-119.45131307z m36.24769387 155.71442027a51.2484672 51.2484672 0 1 1 15.02774506-36.24769387 50.92864533 50.92864533 0 0 1-15.02774506 36.25154773zM411.08868587 283.08697067L298.66573333 395.50606933 254.51498667 351.35146987a34.10142293 34.10142293 0 1 0-48.22750507 48.227504l68.2644992 68.26835306a34.10142293 34.10142293 0 0 0 48.22750507 0l136.5328512-136.53285226a34.10142293 34.10142293 0 0 0-48.2236512-48.227504z" fill="#ffffff" p-id="3364"></path></svg>