<?xml version="1.0" standalone="no"?><!DOCTYPE svg PUBLIC "-//W3C//DTD SVG 1.1//EN" "http://www.w3.org/Graphics/SVG/1.1/DTD/svg11.dtd"><svg t="1596263158050" class="icon" viewBox="0 0 1024 1024" version="1.1" xmlns="http://www.w3.org/2000/svg" p-id="4196" xmlns:xlink="http://www.w3.org/1999/xlink" width="250" height="250"><defs><style type="text/css"></style></defs><path d="M508.7232 595.01226667c-159.47093333 0-288.3584-129.97973333-288.3584-288.3584S349.25226667 17.2032 508.7232 17.2032s288.3584 129.97973333 288.3584 288.3584-128.88746667 289.45066667-288.3584 289.45066667z m0-494.7968c-113.59573333 0-205.34613333 91.7504-205.34613333 205.34613333S396.21973333 512 508.7232 512c113.59573333 0 205.34613333-91.7504 205.34613333-205.34613333s-91.7504-206.4384-205.34613333-206.4384zM789.43573333 1020.99626667H229.10293333c-103.76533333 0-187.86986667-84.10453333-187.86986666-187.86986667s84.10453333-187.86986667 187.86986666-187.86986667h560.3328c103.76533333 0 187.86986667 84.10453333 187.86986667 187.86986667s-84.10453333 187.86986667-187.86986667 187.86986667zM229.10293333 724.992c-60.07466667 0-109.22666667 49.152-109.22666666 109.22666667s49.152 109.22666667 109.22666666 109.22666666h560.3328c60.07466667 0 109.22666667-49.152 109.22666667-109.22666666s-49.152-109.22666667-109.22666667-109.22666667H229.10293333z" fill="#ffffff" p-id="4197"></path><path d="M773.05173333 858.24853333h-99.39626666c-22.9376 0-41.50613333-18.56853333-41.50613334-41.50613333s18.56853333-41.50613333 41.50613334-41.50613333h99.39626666c22.9376 0 41.50613333 18.56853333 41.50613334 41.50613333s-18.56853333 41.50613333-41.50613334 41.50613333z" fill="#ffffff" p-id="4198"></path></svg>